<svg width="32" height="32" viewBox="0 0 32 32" fill="none" xmlns="http://www.w3.org/2000/svg">
  <!-- Circular Swoosh -->
  <path d="M22 6.5C25.5 8.5 28 12.5 28 17C28 23.6 22.6 29 16 29C10.5 29 5.8 25.3 4.4 20.2" stroke="#7a3ebb" stroke-width="2.5" stroke-linecap="round"/>
  <path d="M7 14C5.5 16 5 18.5 5.5 21" stroke="#8567c1" stroke-width="2" stroke-linecap="round"/>
  
  <!-- Second Figure (Smaller behind) -->
  <circle cx="21" cy="12" r="2.5" fill="#b0b0b0"/>
  <path d="M17 19.5C17 17.8 18.3 16.5 20 16.5H22C23.7 16.5 25 17.8 25 19.5V21H17V19.5Z" fill="#b0b0b0"/>
  
  <!-- Main Figure -->
  <circle cx="15.5" cy="11.5" r="3.5" fill="#1a1a1a"/>
  <path d="M9 22C9 19.5 11 17.5 13.5 17.5H17.5C20 17.5 22 19.5 22 22V24H9V22Z" fill="#1a1a1a"/>
  <!-- Shoulder/Tie detail -->
  <path d="M14.5 17.5V21L15.5 22.5L16.5 21V17.5H14.5Z" fill="white"/>
</svg>
